<?xml version="1.0" standalone="no"?>
<!DOCTYPE svg PUBLIC "-//W3C//DTD SVG 20010904//EN"
 "http://www.w3.org/TR/2001/REC-SVG-20010904/DTD/svg10.dtd">
<svg version="1.0" xmlns="http://www.w3.org/2000/svg"
 width="500.000000pt" height="500.000000pt" viewBox="0 0 500.000000 500.000000"
 preserveAspectRatio="xMidYMid meet">
<metadata>
Created by potrace 1.14, written by Peter Selinger 2001-2017
</metadata>
<g transform="translate(0.000000,500.000000) scale(0.100000,-0.100000)"
fill="#000000" stroke="none">
<path d="M2367 4344 c-3 -3 -24 -6 -142 -20 -40 -4 -138 -22 -210 -38 -72 -16
-196 -58 -290 -97 -585 -242 -1045 -756 -1232 -1374 -27 -91 -62 -241 -69
-300 -3 -22 -7 -46 -10 -53 -8 -27 -18 -200 -18 -327 0 -135 8 -241 24 -335
24 -141 23 -134 48 -231 l19 -77 -60 -103 c-33 -57 -67 -117 -77 -134 -9 -16
-51 -88 -92 -160 -42 -71 -116 -201 -166 -287 l-90 -158 532 0 532 0 94 163
c51 89 157 272 235 407 78 135 195 337 260 450 65 113 127 221 138 241 l19 36
-60 104 c-33 57 -69 120 -80 139 -10 19 -37 66 -59 103 l-40 68 -23 -38 c-13
-21 -31 -51 -41 -68 -9 -16 -125 -218 -258 -449 l-242 -419 21 -43 c37 -79 26
-142 -34 -206 -103 -109 -302 -9 -282 142 12 90 79 150 168 150 42 0 43 1 78
62 19 35 49 86 65 115 17 28 47 82 69 120 21 37 51 88 66 113 96 158 350 609
350 621 0 8 -16 41 -36 74 -20 33 -46 76 -56 95 -68 121 -133 230 -138 230 -4
0 -15 -17 -26 -37 -29 -54 -255 -446 -264 -458 -4 -5 -21 -35 -38 -65 -16 -30
-87 -154 -157 -275 -147 -253 -151 -260 -195 -338 -31 -55 -41 -63 -46 -34 -3
20 -12 60 -18 87 -7 31 -16 91 -23 150 -9 79 -11 413 -3 475 4 33 11 85 15
115 21 171 101 423 190 605 103 210 162 299 315 479 48 56 175 178 250 239
285 230 645 382 1008 424 85 9 324 10 422 1 291 -27 610 -144 875 -321 333
-221 605 -554 760 -931 44 -107 87 -238 100 -306 2 -8 8 -33 13 -55 6 -22 14
-62 18 -90 3 -27 8 -53 10 -57 10 -16 19 -190 18 -353 -1 -170 -14 -292 -45
-434 -11 -54 -11 -54 -28 -32 -10 13 -26 39 -37 59 -10 20 -43 76 -71 125 -29
48 -53 92 -53 97 0 24 -18 6 -48 -47 -17 -32 -77 -134 -131 -228 -55 -93 -112
-193 -127 -221 l-26 -50 21 -42 c39 -76 22 -155 -44 -209 -116 -96 -286 -3
-272 149 7 85 81 150 171 152 l41 1 63 110 c35 61 78 135 95 165 35 63 112
198 127 220 5 8 21 37 35 63 l26 49 -47 81 c-25 45 -58 102 -72 127 -14 25
-36 62 -49 82 -12 21 -23 39 -23 42 0 2 -18 34 -40 70 -22 36 -40 69 -40 73 0
5 -10 21 -23 36 l-22 28 -39 -68 c-22 -37 -69 -120 -106 -183 -71 -122 -431
-744 -460 -795 -77 -136 -408 -709 -430 -745 -15 -25 -39 -66 -54 -92 l-26
-48 1115 0 c613 0 1115 2 1115 5 0 5 -385 675 -446 776 l-34 56 15 56 c14 54
20 79 30 135 3 15 8 33 10 40 2 7 7 34 10 60 4 26 8 58 11 72 22 124 22 484
-1 600 -3 14 -8 45 -11 70 -14 110 -94 400 -130 468 -8 15 -14 30 -14 34 0 15
-86 187 -134 268 -153 261 -342 470 -594 658 -45 34 -85 62 -88 62 -3 0 -24
13 -47 28 -78 54 -282 153 -372 182 -22 7 -49 16 -60 21 -37 15 -160 48 -235
63 -76 14 -115 21 -205 32 -53 7 -333 13 -338 8z"/>
<path d="M2584 3063 c-21 -37 -42 -74 -47 -82 -4 -9 -20 -37 -35 -62 -15 -25
-65 -112 -112 -193 -47 -81 -92 -159 -101 -174 -9 -15 -27 -47 -41 -72 -14
-25 -43 -74 -64 -110 -21 -36 -48 -81 -59 -101 -30 -54 -185 -322 -195 -339
-5 -8 -32 -53 -58 -100 -188 -327 -351 -608 -373 -645 -11 -16 -22 -36 -26
-44 -3 -8 -66 -118 -140 -244 -73 -127 -133 -234 -133 -239 0 -4 319 -8 709
-8 555 0 711 3 719 12 5 7 67 112 137 233 70 121 153 265 185 320 148 255 243
419 264 458 13 23 47 81 74 129 l51 88 -105 182 c-57 100 -104 186 -104 190 0
19 -18 5 -37 -29 -11 -21 -53 -94 -93 -163 -40 -69 -81 -139 -91 -157 -29 -51
-281 -488 -353 -612 -62 -106 -65 -114 -51 -135 45 -63 38 -149 -16 -210 -106
-122 -302 -34 -290 129 6 84 67 142 161 152 33 3 60 9 60 13 0 4 48 90 106
191 59 101 116 200 127 219 38 68 251 436 297 515 111 190 114 196 100 219
-14 21 -143 246 -177 306 -10 18 -23 32 -28 32 -6 0 -101 -157 -211 -349
l-202 -348 21 -29 c28 -39 31 -119 6 -167 -27 -55 -72 -82 -140 -87 -65 -5
-112 17 -148 66 -78 110 -3 260 134 268 22 2 43 3 46 3 3 1 12 13 20 28 8 16
41 73 73 128 32 55 69 118 81 140 12 22 61 107 108 189 48 82 87 150 87 151 0
2 16 28 34 60 l35 57 -32 57 c-17 31 -54 95 -82 143 l-51 87 -40 -66z"/>
<path d="M2273 1983 c-35 -18 -43 -31 -43 -68 1 -38 17 -59 56 -72 54 -19 105
22 98 81 -6 57 -60 86 -111 59z"/>
<path d="M834 1317 c-54 -46 -32 -122 38 -133 31 -5 41 -2 63 21 23 22 26 32
21 63 -10 65 -74 90 -122 49z"/>
<path d="M3772 1330 c-13 -6 -29 -24 -36 -42 -12 -28 -12 -37 0 -61 32 -60
125 -56 140 6 10 42 7 57 -19 85 -22 23 -47 27 -85 12z"/>
<path d="M2344 1139 c-41 -12 -56 -31 -56 -73 0 -73 78 -105 131 -55 21 19 27
61 15 94 -10 26 -55 43 -90 34z"/>
</g>
</svg>
